<svg width="1600" height="933.33334" xmlns="http://www.w3.org/2000/svg" xmlns:svg="http://www.w3.org/2000/svg">
 <g>
  <title>Layer 1</title>
  <path fill="#777575" id="path9359" d="m104.94922,385.35341c5.16424,-36.15459 9.64082,-65.92499 9.94794,-66.15642c0.3071,-0.23144 64.15509,-9.48504 141.88438,-20.56358c125.4099,-17.87432 141.64006,-19.87136 144.11464,-17.73258c1.53374,1.32562 45.90018,38.7771 98.59211,83.2255c52.6919,44.4484 97.25688,82.19845 99.0333,83.88899c3.15813,3.00547 -2.39058,3.07371 -249.86602,3.07371l-253.09589,0l9.38954,-65.73563z"/>
  <path fill="#d8a699" id="path9361" d="m484.74928,932.09619c0,-0.68042 32.74459,-34.0279 72.76574,-74.10552c66.91155,-67.00592 73.00394,-72.67989 75.72613,-70.52541c2.53277,2.00453 154.2311,137.36971 160.96858,143.63728c2.02312,1.88205 -21.97853,2.23077 -153.53122,2.23077c-85.76109,0 -155.92923,-0.5567 -155.92923,-1.23712z"/>
  <path fill="#8aaa81" id="path9363" d="m0.00007,72.31952l0,-72.30931l64.17538,0l64.17538,0l-4.15811,4.51078c-2.28698,2.48094 -30.53461,34.77408 -62.7725,71.76254c-32.23792,36.98846 -59.24568,67.49781 -60.01726,67.79853c-0.77158,0.3007 -1.40288,-31.99243 -1.40288,-71.76254z"/>
  <path fill="#c1f4b5" id="path9365" d="m0.01693,314.53518l0.0168,-136.55387l60.59667,-69.30211c33.32816,-38.11616 61.40669,-69.30211 62.3967,-69.30211c1.1316,0 1.45141,1.9796 0.86122,5.33093c-0.51635,2.93202 -13.50632,93.90642 -28.86658,202.16533c-15.36027,108.25893 -28.29896,198.4952 -28.75264,200.52504c-0.82174,3.67666 -0.94914,3.69066 -33.54701,3.69066l-32.72211,0l0.0168,-136.55386l0.00014,0z"/>
  <path fill="#869e95" id="path9367" d="m119.49613,286.85534c-0.15216,-6.40338 30.5039,-216.31282 31.5912,-216.31282c1.43194,0 214.69557,180.04461 215.34579,181.80248c0.22808,0.61654 -53.2008,8.75854 -118.73078,18.09331c-65.53002,9.33477 -121.17208,17.35483 -123.64906,17.82237c-3.12786,0.59037 -4.51995,0.16107 -4.55715,-1.40534z"/>
  <path fill="#a7a6ad" id="path9369" d="m277.01991,145.46931c-67.2432,-56.83123 -122.44374,-103.45816 -122.66787,-103.61542c-0.22413,-0.15728 0.89907,-9.45186 2.49598,-20.65472l2.90349,-20.3688l319.15357,-0.41422c303.99614,-0.39454 319.03693,-0.2777 316.6971,2.46043c-5.78973,6.77533 -194.67266,216.93723 -195.01718,216.98718c-0.20912,0.0304 -45.58824,6.55314 -100.84246,14.4951l-100.46224,14.43995l-122.26038,-103.3295z"/>
  <path fill="#b3d8d6" id="path9371" d="m638.68991,213.49137c0,-0.72291 42.88403,-49.0519 95.29782,-107.39778l95.29784,-106.08339l114.05802,0l114.058,0l-22.11323,79.96398c-12.1623,43.98018 -22.3064,80.21768 -22.54243,80.52776c-0.23605,0.3101 -82.46861,12.2785 -182.73901,26.59648c-100.27042,14.31795 -184.33645,26.40946 -186.81342,26.86997c-2.47698,0.46054 -4.50358,0.24587 -4.50358,-0.47702z"/>
  <path fill="#ecd1e4" id="path9373" d="m535.57077,364.22512c-56.26517,-47.67562 -102.56112,-87.46664 -102.87989,-88.4245c-0.31878,-0.95786 1.1309,-2.12672 3.22149,-2.59747c7.15744,-1.6117 566.91251,-81.25218 567.43123,-80.73264c0.28483,0.28528 -15.53373,58.40664 -35.15234,129.15854l-35.67022,128.63984l-147.32499,0.31958l-147.32498,0.31958l-102.3003,-86.68294z"/>
  <path fill="#c9c8ad" id="path9375" d="m963.46292,446.57825c1.28125,-6.25133 71.25931,-258.19846 71.88976,-258.82992c0.28046,-0.28093 125.04578,-18.30648 277.25622,-40.05677c152.21045,-21.75029 279.14136,-39.96939 282.06869,-40.48691l5.32242,-0.94091l0,172.41264l0,172.41266l-318.7308,0l-318.73078,0l0.9245,-4.51078z"/>
  <path fill="#aabddd" id="path9377" d="m1044.85738,153.78709c0.0144,-1.1277 9.46646,-36.0043 21.00454,-77.50355l20.97832,-75.45317l256.57989,-0.41518l256.57987,-0.41518l0,38.55184c0,21.2035 -0.19645,38.55186 -0.43653,38.55186c-0.2401,0 -124.21971,17.71509 -275.51024,39.36686c-151.29053,21.65178 -276.00707,39.36688 -277.14789,39.36688c-1.14082,0 -2.0624,-0.92266 -2.04797,-2.05035z"/>
  <path fill="#737c66" id="path9379" d="m1223.33677,932.45816c0,-1.38035 373.45824,-441.1183 375.14907,-441.72886c0.92232,-0.33306 1.51416,86.05866 1.51416,221.02864l0,221.57538l-188.33163,0c-103.58238,0 -188.3316,-0.39381 -188.3316,-0.87515z"/>
  <path fill="#ebeff0" id="path9381" d="m1056.17324,804.39744c-79.64654,-67.34982 -147.24117,-124.58022 -150.21026,-127.17864l-5.39837,-4.72442l26.58234,-95.9401l26.58235,-95.94008l312.74435,0c297.69275,0 312.6265,0.13808 310.29574,2.8705c-1.34672,1.57878 -85.95522,101.41072 -188.01891,221.84877c-102.06368,120.43805 -186.06419,219.54974 -186.66784,220.24822c-0.60363,0.69848 -66.26286,-53.83443 -145.90941,-121.18426z"/>
  <path fill="#b7958b" id="path9383" d="m829.03735,930.46281c10.94261,-41.32074 64.46037,-231.6905 65.13408,-231.6905c0.9385,0 268.06141,225.40214 274.25802,231.42285c3.18163,3.09128 0.66624,3.13814 -168.4612,3.13814c-162.71309,0 -171.6513,-0.15008 -170.9309,-2.8705z"/>
  <path fill="#606060" id="path9385" d="m776.12834,567.51665c-54.4243,-46.02805 -99.19891,-84.41075 -99.49915,-85.2949c-0.35336,-1.04054 43.18109,-1.60755 123.42539,-1.60755c117.26632,0 123.93006,0.1552 123.20944,2.8705c-11.07995,41.74773 -46.55499,167.68941 -47.23802,167.70195c-0.51942,0.0096 -45.47336,-37.64195 -99.89766,-83.67z"/>
  <path fill="#baedaf" id="path9387" d="m565.11484,698.14057c-130.98829,-117.43886 -238.46014,-214.42549 -238.82634,-215.52581c-0.52069,-1.56456 33.29064,-2.00056 155.13862,-2.00056l155.80442,0l115.77525,97.85944c63.67637,53.82272 115.97338,98.00136 116.21555,98.17478c0.6745,0.48299 -63.80062,232.75203 -64.94426,233.95904c-0.55149,0.58208 -108.17494,-95.02803 -239.16325,-212.4669z"/>
  <path fill="#878484" id="path9389" d="m59.13255,707.38382c17.79005,-124.27221 32.39758,-226.13402 32.46118,-226.35955c0.06352,-0.22554 45.0409,-0.41006 99.94954,-0.41006l99.83387,0l149.50082,133.86131c82.22544,73.62374 151.70326,136.00146 154.39518,138.61712l4.89438,4.75581l-87.59078,87.74242l-87.5908,87.74245l-199.09947,0l-199.09947,0l32.34555,-225.94949z"/>
  <path fill="#8ea8ad" id="path9391" d="m0.00007,683.32629l0,-202.71208l30.82152,0l30.8215,0l-28.81141,202.04098c-19.41901,136.17643 -29.46669,202.25976 -30.82152,202.7121c-1.58112,0.52787 -2.0101,-42.58923 -2.0101,-202.04099z"/>
  <rect opacity="0.9" id="svg_2" height="931.55551" width="1598.22229" y="0" x="0" stroke-linecap="null" stroke-linejoin="null" stroke-dasharray="null" stroke-width="null" fill="#cbd1c2"/>
 </g>
</svg>